<svg width="200" height="200" viewBox="0 0 200 200" fill="none" xmlns="http://www.w3.org/2000/svg">
  <rect x="29" y="99.7107" width="100" height="100" transform="rotate(-45 29 99.7107)" fill="white" />
  <path
    d="M99.9999 0L0 100L99.9999 200L200 100L99.9999 0ZM99.9999 40.0001L160 100L99.9999 160L40.0001 100L99.9999 40.0001Z"
    fill="#D5D5D5" />
  <path
    d="M84.3636 94.1818C82.5553 94.1818 80.8211 94.9002 79.5424 96.1788C78.2638 97.4575 77.5454 99.1917 77.5454 101C77.5454 102.808 78.2638 104.543 79.5424 105.821C80.8211 107.1 82.5553 107.818 84.3636 107.818H118.455C120.263 107.818 121.997 107.1 123.276 105.821C124.554 104.543 125.273 102.808 125.273 101C125.273 99.1917 124.554 97.4575 123.276 96.1788C121.997 94.9002 120.263 94.1818 118.455 94.1818H84.3636Z"
    fill="#5F5F5F" />
  <path
    d="M121.182 26C113.949 26 107.012 28.8734 101.897 33.988C96.7825 39.1026 93.9091 46.0396 93.9091 53.2727V148.727C93.9091 152.344 92.4724 155.812 89.9151 158.37C87.3578 160.927 83.8893 162.364 80.2727 162.364C76.6561 162.364 73.1877 160.927 70.6304 158.37C68.073 155.812 66.6364 152.344 66.6364 148.727C66.6364 146.919 65.918 145.185 64.6394 143.906C63.3607 142.627 61.6265 141.909 59.8182 141.909C58.0099 141.909 56.2757 142.627 54.997 143.906C53.7183 145.185 53 146.919 53 148.727C52.9999 148.897 53.0061 149.067 53.0186 149.236C53.1519 156.377 56.0814 163.182 61.1776 168.186C66.2739 173.191 73.1301 175.996 80.2727 176C87.5059 176 94.4428 173.127 99.5575 168.012C104.672 162.897 107.545 155.96 107.545 148.727V53.2727C107.545 49.6561 108.982 46.1877 111.539 43.6304C114.097 41.073 117.565 39.6364 121.182 39.6364C124.798 39.6364 128.267 41.073 130.824 43.6304C133.382 46.1877 134.818 49.6561 134.818 53.2727C134.818 55.081 135.537 56.8153 136.815 58.0939C138.094 59.3726 139.828 60.0909 141.636 60.0909C143.445 60.0909 145.179 59.3726 146.458 58.0939C147.736 56.8153 148.455 55.081 148.455 53.2727C148.454 53.1226 148.449 52.9724 148.439 52.8226C148.321 45.6705 145.397 38.851 140.299 33.8338C135.2 28.8166 128.335 26.0032 121.182 26V26Z"
    fill="#0091B1" />
</svg>